<?xml version="1.0" encoding="UTF-8" standalone="no"?>
<!-- Created with Inkscape (http://www.inkscape.org/) -->

<svg
   width="48.868538mm"
   height="48.921421mm"
   viewBox="0 0 48.868538 48.921422"
   version="1.1"
   id="svg42"
   inkscape:version="1.1.2 (b8e25be833, 2022-02-05)"
   sodipodi:docname="doom.svg"
   xmlns:inkscape="http://www.inkscape.org/namespaces/inkscape"
   xmlns:sodipodi="http://sodipodi.sourceforge.net/DTD/sodipodi-0.dtd"
   xmlns="http://www.w3.org/2000/svg"
   xmlns:svg="http://www.w3.org/2000/svg">
  <sodipodi:namedview
     id="namedview44"
     pagecolor="#ffffff"
     bordercolor="#111111"
     borderopacity="1"
     inkscape:pageshadow="0"
     inkscape:pageopacity="0"
     inkscape:pagecheckerboard="1"
     inkscape:document-units="mm"
     showgrid="false"
     fit-margin-top="0"
     fit-margin-left="0"
     fit-margin-right="0"
     fit-margin-bottom="0"
     inkscape:zoom="1.4859428"
     inkscape:cx="64.941936"
     inkscape:cy="77.728431"
     inkscape:window-width="1920"
     inkscape:window-height="1001"
     inkscape:window-x="-9"
     inkscape:window-y="-9"
     inkscape:window-maximized="1"
     inkscape:current-layer="layer1" />
  <defs
     id="defs39" />
  <g
     inkscape:label="Layer 1"
     inkscape:groupmode="layer"
     id="layer1"
     transform="translate(-79.027051,-113.03838)">
    <path
       id="Doom"
       fill="#000"
       d="m 119.29663,150.58275 c 2.59292,-3.14854 4.2598,-7.09083 4.63021,-11.40354 0.71438,-0.47625 2.54,-1.5875 3.96875,-1.69333 0,0 -2.54,-0.68792 -3.99521,-1.98438 -0.42333,-4.28625 -2.14312,-8.17562 -4.7625,-11.2977 0.15875,-0.82021 0.66146,-2.91042 1.61396,-4.02167 0,0 -2.30187,1.29646 -4.23333,1.42875 -3.14854,-2.59292 -7.06438,-4.25979 -11.35063,-4.60375 -0.47625,-0.71438 -1.5875,-2.54 -1.69333,-3.96875 0,0 -0.68792,2.51354 -1.98437,3.99521 -4.312713,0.39687 -8.228546,2.14312 -11.324171,4.7625 -0.846667,-0.18521 -2.883958,-0.68792 -3.96875,-1.5875 0,0 1.27,2.24896 1.42875,4.18041 -2.619375,3.14855 -4.312708,7.1173 -4.683125,11.45646 -0.740833,0.50271 -2.513542,1.53459 -3.915833,1.66688 0,0 2.460625,0.66146 3.915833,1.93146 0.396875,4.33916 2.143125,8.30791 4.815417,11.45645 -0.185209,0.87313 -0.687917,2.8575 -1.5875,3.91584 0,0 2.354791,-1.77271 4.392083,-1.21709 l -0.02646,-0.0265 c 0,-0.0529 0,-0.10583 0,-0.1852 -0.02646,-0.4498 -4.683125,-6.90563 2.778125,-5.95313 2.169583,0.29104 5.979583,1.13771 6.138333,6.27063 0.02646,0.89958 -0.185208,3.06916 -1.455208,3.3602 0,0 -0.264584,0.0794 -0.687917,0.1323 1.42875,0.44979 2.936873,0.74083 4.497923,0.87312 0.5027,0.74083 1.53458,2.51354 1.66687,3.88938 0,0 0.66146,-2.46063 1.93146,-3.9423 1.45521,-0.13229 2.83104,-0.42333 4.18042,-0.84666 -0.39688,-0.0794 -0.66146,-0.13229 -0.66146,-0.13229 -1.27,-0.29105 -1.48167,-2.43417 -1.45521,-3.36021 0.18521,-5.10646 3.96875,-5.97959 6.13833,-6.27063 7.46125,-0.9525 2.77813,5.47688 2.77813,5.95313 0,0.0529 0,0.0794 0,0.13229 l -0.0265,0.0265 c 0,0 0,0 0.0265,0 0,0 0,0 0,0 0,0 0,0 0,0 0.29104,0 3.04271,0.13229 4.36562,1.27 -0.0529,-0.0265 -1.32291,-2.27542 -1.45521,-4.20688 z m -25.796871,-4.7625 c -4.841875,0 -8.73125,-3.91583 -8.73125,-8.73125 0,-4.81541 3.915833,-8.73125 8.73125,-8.73125 4.815417,0 8.731251,3.91584 8.731251,8.73125 0,4.81542 -3.915834,8.73125 -8.731251,8.73125 z m 19.817291,0.0265 c -4.84187,0 -8.73125,-3.91583 -8.73125,-8.73125 0,-4.84187 3.91583,-8.73125 8.73125,-8.73125 4.81542,0 8.73125,3.91584 8.73125,8.73125 0.0265,4.81542 -3.88937,8.73125 -8.73125,8.73125 z"
       style="stroke-width:0.264583" />
  </g>
</svg>
