<?xml version="1.0" encoding="UTF-8" standalone="no"?>
<!-- Created with Inkscape (http://www.inkscape.org/) -->

<svg
   width="49.42416mm"
   height="45.376041mm"
   viewBox="0 0 49.424161 45.376041"
   version="1.1"
   id="svg42"
   inkscape:version="1.1.2 (b8e25be833, 2022-02-05)"
   sodipodi:docname="light.svg"
   xmlns:inkscape="http://www.inkscape.org/namespaces/inkscape"
   xmlns:sodipodi="http://sodipodi.sourceforge.net/DTD/sodipodi-0.dtd"
   xmlns="http://www.w3.org/2000/svg"
   xmlns:svg="http://www.w3.org/2000/svg">
  <sodipodi:namedview
     id="namedview44"
     pagecolor="#ffffff"
     bordercolor="#111111"
     borderopacity="1"
     inkscape:pageshadow="0"
     inkscape:pageopacity="0"
     inkscape:pagecheckerboard="1"
     inkscape:document-units="mm"
     showgrid="false"
     fit-margin-top="0"
     fit-margin-left="0"
     fit-margin-right="0"
     fit-margin-bottom="0"
     inkscape:zoom="1.4859428"
     inkscape:cx="-114.069"
     inkscape:cy="-31.966238"
     inkscape:window-width="1920"
     inkscape:window-height="1001"
     inkscape:window-x="-9"
     inkscape:window-y="-9"
     inkscape:window-maximized="1"
     inkscape:current-layer="layer1" />
  <defs
     id="defs39" />
  <g
     inkscape:label="Layer 1"
     inkscape:groupmode="layer"
     id="layer1"
     transform="translate(-126.5906,-141.97489)">
    <path
       id="Light"
       fill="#f6fa4e "
       d="m 140.93101,160.54864 c 2.09021,-5.02708 8.3873,-7.17021 14.02292,-4.81542 5.63563,2.3548 8.49313,8.33438 6.40292,13.36146 -2.09021,5.02709 -8.38729,7.17021 -14.02292,4.81542 -5.63562,-2.35479 -8.49312,-8.33438 -6.40292,-13.36146 z m 7.48771,-6.69396 c 0,0 -1.19062,-4.18041 1.34938,-5.37104 0,0 1.93146,-0.71437 0.76729,-2.03729 0,0 -2.43417,-0.21167 -1.48167,-2.19604 0,0 0.76729,-1.42875 1.71979,-1.61396 0,0 0.55563,-0.21167 0.60855,-0.66146 0,0 0.5027,0.34396 -0.4498,1.11125 0,0 -1.21708,1.27 1.05834,2.19604 0,0 1.77271,1.05834 0.92604,3.54542 0,0 -0.15875,0.92604 -1.42875,1.61396 0,0 -0.76729,0.55562 0.21167,1.00541 0,0 0.92604,0.60855 0.8202,2.93688 0,-0.0529 -0.92604,-0.79375 -4.10104,-0.52917 z m 5.95313,0.60854 2.38125,-1.82562 v 2.98979 c 0,0 -0.9525,-0.84667 -2.38125,-1.16417 z m 3.30729,1.74625 c 0,0 0.87312,-1.05833 2.93687,-2.0902 0,0 1.32292,-0.82021 2.09021,-1.87855 0,0 -0.10583,1.21709 -0.76729,2.0373 0,0 -0.87312,1.42875 -1.77271,4.02166 0,0.0265 -1.27,-1.48166 -2.48708,-2.09021 z m 4.47146,4.86834 c 0,0 -0.0529,-1.00542 -0.87313,-1.61396 0,0 0.84667,0.23812 1.32292,-0.29104 0.13229,-0.15875 0.3175,-0.26459 0.52917,-0.34396 0.29104,-0.10583 0.68791,-0.18521 1.03187,-0.0529 0,0 -1.05833,1.00542 -1.27,1.66688 0.0265,0 -0.66146,1.11125 -0.74083,0.635 z m 0.18521,2.03729 c 0,0 0.71437,1.37583 0.15875,3.91583 0,0 2.96333,0.97896 4.60375,-1.24354 0,0 1.16416,-2.03729 2.43416,-0.82021 0,0 1.71979,1.13771 2.96334,-0.0265 0.13229,-0.10583 0.23812,-0.26458 0.29104,-0.42333 0.26458,-0.58208 1.19062,-2.30187 3.22791,-1.42875 0,0 -0.9525,-1.56104 -2.80458,-0.79375 -0.15875,0.0794 -0.3175,0.18521 -0.42333,0.3175 -0.42334,0.47625 -1.64042,1.66688 -2.43417,0.26458 0,0 -1.50812,-2.30187 -3.62479,-0.29104 -0.10583,0.10584 -0.18521,0.21167 -0.26458,0.3175 -0.26459,0.47625 -1.32292,1.77271 -4.1275,0.21167 z m 0.13229,5.29167 c 0,0 1.19062,1.95791 2.35479,2.61937 0,0 -2.01083,-0.23812 -3.57188,-0.0265 0,0 1.13771,-1.08479 1.21709,-2.59291 z m -3.78354,5.2652 c 0,0 1.53458,-1.05833 2.0902,-2.19604 0,0 2.27542,3.65125 3.41313,5.58271 0,0 -1.08479,-1.19062 -2.56646,-1.74625 0.0265,-0.0265 -2.75167,-1.11125 -2.93687,-1.64042 z m -0.55563,3.96875 v -3.65125 l -2.54,1.32292 z m -7.88458,-2.14312 c 0,0 1.05833,0.55562 3.91583,0 0,0 0.52917,2.30187 0.84667,2.46062 0,0 1.11125,1.98438 -0.34396,2.54 0,0 -2.14313,1.37584 -0.15875,3.30729 0,0 0.66146,1.42875 -1.93146,3.54542 0,0 1.66688,-2.54 0.21167,-3.41312 0,0 -3.59834,-0.87313 -2.69875,-3.41313 0,0 0.21166,-0.87312 1.71979,-0.71437 0,0 0.71437,-0.50271 -0.21167,-1.53459 0,-0.0529 -1.16416,-0.44979 -1.34937,-2.77812 z m -3.96875,-0.89958 c 0,0 0,0.5027 2.38125,0.87312 0,0 -1.64042,1.40229 -2.40771,2.40771 -0.0265,0 -0.18521,-3.14854 0.0265,-3.28083 z m -3.75709,-2.69875 c 0,0 1.98438,1.93145 2.93688,2.0902 0,0 -3.83646,1.95792 -5.50333,3.6248 0,0 0.0529,-0.87313 0.92604,-1.82563 0,0 1.93146,-3.14854 1.64041,-3.88937 z m -2.11666,-2.8575 c 0,0 1.00541,1.87854 1.37583,1.98437 0,0 -2.61937,-0.0265 -3.33375,0.84667 0,0 0.29104,-0.92604 0.84667,-1.21709 0.10583,-0.0529 0.18521,-0.13229 0.29104,-0.21166 0.29104,-0.29104 0.82021,-0.87313 0.82021,-1.40229 z m 0,-1.16417 c 0,0 -1.11125,-1.42875 -0.66146,-3.36021 0,0 -1.00542,-0.44979 -1.82562,0.15875 0,0 -1.19063,0.71438 -2.14313,-0.21167 -0.10583,-0.10583 -0.23812,-0.1852 -0.37042,-0.26458 -0.60854,-0.29104 -2.11666,-0.76729 -2.93687,0.97896 0,0 -0.74083,2.83104 -1.85208,0.89958 0,0 -1.11125,-1.87854 -4.02167,1.37584 0,0 2.98979,-1.98438 3.30729,-0.21167 0,0 0.15875,0.58208 0.58208,1.00542 0.52917,0.55562 1.42875,0.52916 1.93146,-0.0529 0.71438,-0.79375 2.43417,-2.48708 3.22792,-0.92604 0.0794,0.18521 0.21167,0.34396 0.37042,0.47625 0.5027,0.44979 1.74625,1.03187 4.39208,0.13229 z m -1.08479,-5.74146 c 0,0 0.55562,-1.71979 1.32291,-2.14312 0,0 -1.98437,-0.15875 -2.59291,0.15875 0,0 -0.58209,0.13229 -1.03188,-0.0265 0,0 0.0529,0.55562 0.50271,0.55562 0,-0.0265 0.97896,0.42334 1.79917,1.45521 z m 1.53458,-3.81 c 0,0 0.76729,-1.82562 2.43417,-2.14312 0,0 0,-0.55563 -2.19605,-1.87855 0,0 -1.98437,-0.66145 -3.3602,-2.19604 0,0 1.74625,3.06917 2.06375,4.23334 -0.0265,-0.0265 0.635,1.95791 1.05833,1.98437 z m 3.78354,-2.8575 c 0,0 1.19063,-1.29646 2.96333,-1.34937 l -3.22791,-2.56646 c 0,0 0.635,1.79916 0.26458,3.91583 z"
       style="stroke-width:0.264583" />
  </g>
</svg>
