<?xml version="1.0" encoding="UTF-8" standalone="no"?>
<!-- Created with Inkscape (http://www.inkscape.org/) -->

<svg
   width="43.761734mm"
   height="41.936459mm"
   viewBox="0 0 43.761734 41.93646"
   version="1.1"
   id="svg42"
   inkscape:version="1.1.2 (b8e25be833, 2022-02-05)"
   sodipodi:docname="mind.svg"
   xmlns:inkscape="http://www.inkscape.org/namespaces/inkscape"
   xmlns:sodipodi="http://sodipodi.sourceforge.net/DTD/sodipodi-0.dtd"
   xmlns="http://www.w3.org/2000/svg"
   xmlns:svg="http://www.w3.org/2000/svg">
  <sodipodi:namedview
     id="namedview44"
     pagecolor="#ffffff"
     bordercolor="#111111"
     borderopacity="1"
     inkscape:pageshadow="0"
     inkscape:pageopacity="0"
     inkscape:pagecheckerboard="1"
     inkscape:document-units="mm"
     showgrid="false"
     fit-margin-top="0"
     fit-margin-left="0"
     fit-margin-right="0"
     fit-margin-bottom="0"
     inkscape:zoom="1.4859428"
     inkscape:cx="161.17714"
     inkscape:cy="77.728431"
     inkscape:window-width="1920"
     inkscape:window-height="1001"
     inkscape:window-x="-9"
     inkscape:window-y="-9"
     inkscape:window-maximized="1"
     inkscape:current-layer="layer1" />
  <defs
     id="defs39" />
  <g
     inkscape:label="Layer 1"
     inkscape:groupmode="layer"
     id="layer1"
     transform="translate(-53.603296,-113.18807)">
    <path
       id="Mind"
       fill="#06ffc9 "
       d="m 96.492254,137.60911 c 0.02646,2.83105 0.502708,6.77334 -2.963333,9.68375 -0.635,0.52917 -1.613959,0.34396 -1.74625,0.10584 -0.555625,-0.92604 0.502708,-3.86292 -0.661459,-5.79438 -0.449791,-0.74083 -0.9525,-0.74083 -1.640416,-1.08479 0,0 0,0 0,0 0.370416,-1.29646 0.555625,-2.67229 0.555625,-4.07458 0,-7.35542 -5.23875,-13.49375 -12.170834,-14.89604 0,0 0,0 0,0 0,0 0,0 0,0 0,0 0,0 0,0 -0.07937,-0.0265 -0.15875,-0.26459 -0.15875,-0.55563 0,-1.98437 3.518959,-0.9525 3.518959,-3.96875 0,-2.11666 -3.545417,-3.83646 -7.911042,-3.83646 -4.92125,0 -7.672916,2.59292 -8.916458,4.28625 1.402292,-1.19062 3.836458,-3.12208 7.699375,-3.12208 2.2225,0 4.048125,1.29646 4.048125,1.93146 0,1.56104 -4.550833,1.50812 -4.550833,4.1275 0,0.635 0.105833,1.16417 0.238125,1.16417 0,0 0,0 0,0 -6.932084,1.40229 -12.170834,7.54062 -12.170834,14.89604 0,1.905 0.343959,3.75708 1.005417,5.45041 0,0 0,0 0,0 0,0.37042 -0.343958,0.66146 -0.767292,0.66146 -1.296458,0 -1.984375,-2.16958 -4.445,-2.16958 -1.031875,0 -1.852083,1.08479 -1.852083,2.43416 0,7.22313 5.794375,12.27667 10.00125,12.27667 -3.624792,-1.37583 -6.932083,-3.54542 -6.932083,-7.96396 0,-0.82021 0.211666,-1.50812 0.47625,-1.50812 1.058333,0 2.831041,2.77812 5.08,2.77812 0.873125,0 1.5875,-0.42333 2.2225,-0.87312 0,0 0,0 0,0 2.725208,2.54 6.376458,4.10104 10.371666,4.10104 4.788958,0 9.075208,-2.2225 11.853333,-5.68854 0,0 0,0.0265 0,0.0265 0.3175,-0.18521 0.635,0.15875 0.846667,0.5027 0.661458,1.11125 -1.243542,3.33375 0.02646,5.45042 0.529167,0.87313 2.566459,0.79375 3.730625,0.10583 6.19125,-3.73062 7.090834,-11.2977 5.212292,-14.44625 z"
       style="stroke-width:0.264583" />
  </g>
</svg>
