<?xml version="1.0" encoding="UTF-8" standalone="no"?>
<!-- Created with Inkscape (http://www.inkscape.org/) -->

<svg
   width="44.873413mm"
   height="45.134171mm"
   viewBox="0 0 44.873413 45.134172"
   version="1.1"
   id="svg42"
   inkscape:version="1.1.2 (b8e25be833, 2022-02-05)"
   sodipodi:docname="space.svg"
   xmlns:inkscape="http://www.inkscape.org/namespaces/inkscape"
   xmlns:sodipodi="http://sodipodi.sourceforge.net/DTD/sodipodi-0.dtd"
   xmlns="http://www.w3.org/2000/svg"
   xmlns:svg="http://www.w3.org/2000/svg">
  <sodipodi:namedview
     id="namedview44"
     pagecolor="#ffffff"
     bordercolor="#111111"
     borderopacity="1"
     inkscape:pageshadow="0"
     inkscape:pageopacity="0"
     inkscape:pagecheckerboard="1"
     inkscape:document-units="mm"
     showgrid="false"
     fit-margin-top="0"
     fit-margin-left="0"
     fit-margin-right="0"
     fit-margin-bottom="0"
     inkscape:zoom="1.4859428"
     inkscape:cx="-7.7391945"
     inkscape:cy="27.928397"
     inkscape:window-width="1920"
     inkscape:window-height="1001"
     inkscape:window-x="-9"
     inkscape:window-y="-9"
     inkscape:window-maximized="1"
     inkscape:current-layer="layer1" />
  <defs
     id="defs39" />
  <g
     inkscape:label="Layer 1"
     inkscape:groupmode="layer"
     id="layer1"
     transform="translate(-98.275528,-126.32177)">
    <path
       id="Space"
       fill="#fff"
       d="m 120.89748,148.21417 c -0.0265,0 -0.0794,-0.0265 -0.10583,-0.0265 -0.26458,-0.55562 -3.41313,-7.43479 5.37104,-10.95375 0,0 9.44563,-5.18583 16.98625,6.48229 0,0 -2.96333,-12.88521 -15.47812,-10.53041 0,0 -14.39334,4.20687 -7.4348,15.21354 -0.0264,0.0265 -0.0529,0.0529 -0.0794,0.0794 -0.635,-0.0529 -8.14917,-0.74083 -6.79979,-10.10708 0,0 0.23812,-10.76854 14.10229,-11.45646 0,0 -12.64708,-3.86292 -16.85396,8.12271 0,0 -3.54542,14.57854 9.44563,14.04937 0,0.0265 0.0264,0.0794 0.0264,0.10584 -0.34395,0.52916 -4.73604,6.6675 -12.17083,0.82021 0,0 -9.207499,-5.58271 -2.88396,-17.93875 0,0 -9.657288,9.02229 -1.37583,18.65312 0,0 10.84792,10.34521 16.88042,-1.16417 0.0265,0 0.0794,0.0265 0.10583,0.0265 0.26458,0.55563 3.41312,7.43479 -5.37104,10.95375 0,0 -9.44563,5.18584 -16.986252,-6.48229 0,0 2.963332,12.88521 15.478122,10.53042 0,0 14.39334,-4.20688 7.43479,-15.21354 0.0265,-0.0265 0.0529,-0.0529 0.0794,-0.0794 0.635,0.0529 8.14917,0.74083 6.79979,10.10708 0,0 -0.23812,10.76855 -14.10229,11.45646 0,0 12.64708,3.86292 16.85396,-8.12271 0,0 3.54541,-14.57854 -9.44563,-14.04937 0,-0.0265 -0.0265,-0.0794 -0.0265,-0.10583 0.34396,-0.52917 4.73605,-6.6675 12.17084,-0.82021 0,0 9.2075,5.58271 2.88396,17.93875 0,0 9.65729,-9.02229 1.37583,-18.65313 0.0265,0 -10.82146,-10.34521 -16.88042,1.16417 z"
       style="stroke-width:0.264583" />
  </g>
</svg>
