<?xml version="1.0" encoding="UTF-8" standalone="no"?>
<!-- Created with Inkscape (http://www.inkscape.org/) -->

<svg
   width="43.206455mm"
   height="44.026661mm"
   viewBox="0 0 43.206456 44.026661"
   version="1.1"
   id="svg42"
   inkscape:version="1.1.2 (b8e25be833, 2022-02-05)"
   sodipodi:docname="time.svg"
   xmlns:inkscape="http://www.inkscape.org/namespaces/inkscape"
   xmlns:sodipodi="http://sodipodi.sourceforge.net/DTD/sodipodi-0.dtd"
   xmlns="http://www.w3.org/2000/svg"
   xmlns:svg="http://www.w3.org/2000/svg">
  <sodipodi:namedview
     id="namedview44"
     pagecolor="#ffffff"
     bordercolor="#111111"
     borderopacity="1"
     inkscape:pageshadow="0"
     inkscape:pageopacity="0"
     inkscape:pagecheckerboard="1"
     inkscape:document-units="mm"
     showgrid="false"
     fit-margin-top="0"
     fit-margin-left="0"
     fit-margin-right="0"
     fit-margin-bottom="0"
     inkscape:zoom="1.4859428"
     inkscape:cx="68.306803"
     inkscape:cy="126.18252"
     inkscape:window-width="1920"
     inkscape:window-height="1001"
     inkscape:window-x="-9"
     inkscape:window-y="-9"
     inkscape:window-maximized="1"
     inkscape:current-layer="layer1" />
  <defs
     id="defs39" />
  <g
     inkscape:label="Layer 1"
     inkscape:groupmode="layer"
     id="layer1"
     transform="translate(-78.278736,-100.19717)">
    <path
       id="Time"
       fill="#ff2106 "
       d="m 120.55915,129.8305 0.92604,-2.83104 -4.81541,-2.88396 c 0.0794,-0.635 0.10583,-1.27 0.10583,-1.905 0,-1.00541 -0.0794,-2.01083 -0.26458,-2.96333 l 4.57729,-3.01625 -0.92604,-2.83104 -5.60917,0.47625 c -0.82021,-1.42875 -1.82562,-2.72521 -2.98979,-3.83646 l 1.93146,-5.13292 -2.40771,-1.74625 -4.23333,3.67771 c -1.45521,-0.66146 -3.04271,-1.13771 -4.68313,-1.34937 l -1.45521,-5.29167 h -2.963331 l -1.27,5.47687 c -1.613958,0.3175 -3.175,0.89959 -4.577292,1.64042 l -4.28625,-3.43958 -2.407708,1.74625 2.196042,5.18583 c -1.084792,1.19063 -2.010834,2.54 -2.725209,4.02167 l -5.476875,-0.23813 -0.926041,2.83104 4.815416,2.88396 c -0.07937,0.635 -0.105833,1.27 -0.105833,1.905 0,1.00542 0.07937,2.01084 0.264583,2.96334 l -4.577291,3.01625 0.926041,2.83104 5.609167,-0.47625 c 0.820208,1.42875 1.825625,2.72521 2.989792,3.83646 l -1.931459,5.13291 2.407709,1.74625 4.233333,-3.67771 c 1.455208,0.66146 3.042708,1.13771 4.683125,1.34938 l 1.455208,5.29166 h 2.963333 l 1.27,-5.47687 c 1.61396,-0.3175 3.175,-0.89958 4.57729,-1.64042 l 4.28625,3.41313 2.40771,-1.74625 -2.19604,-5.18583 c 1.08479,-1.19063 2.01083,-2.54 2.72521,-4.02167 z"
       style="stroke-width:0.264583" />
  </g>
</svg>
