<?xml version="1.0" encoding="UTF-8" standalone="no"?>
<!-- Created with Inkscape (http://www.inkscape.org/) -->

<svg
   width="49.993336mm"
   height="31.696995mm"
   viewBox="0 0 49.993336 31.696995"
   version="1.1"
   id="svg42"
   inkscape:version="1.1.2 (b8e25be833, 2022-02-05)"
   sodipodi:docname="breath.svg"
   xmlns:inkscape="http://www.inkscape.org/namespaces/inkscape"
   xmlns:sodipodi="http://sodipodi.sourceforge.net/DTD/sodipodi-0.dtd"
   xmlns="http://www.w3.org/2000/svg"
   xmlns:svg="http://www.w3.org/2000/svg">
  <sodipodi:namedview
     id="namedview44"
     pagecolor="#ffffff"
     bordercolor="#111111"
     borderopacity="1"
     inkscape:pageshadow="0"
     inkscape:pageopacity="0"
     inkscape:pagecheckerboard="1"
     inkscape:document-units="mm"
     showgrid="false"
     fit-margin-top="0"
     fit-margin-left="0"
     fit-margin-right="0"
     fit-margin-bottom="0"
     inkscape:zoom="1.4859428"
     inkscape:cx="31.966238"
     inkscape:cy="48.1176"
     inkscape:window-width="1920"
     inkscape:window-height="1001"
     inkscape:window-x="-9"
     inkscape:window-y="-9"
     inkscape:window-maximized="1"
     inkscape:current-layer="layer1" />
  <defs
     id="defs39" />
  <g
     inkscape:label="Layer 1"
     inkscape:groupmode="layer"
     id="layer1"
     transform="translate(-87.891825,-120.89971)">
    <path
       id="Breath"
       fill="#10dfff"
       d="m 121.54682,152.5967 h 7.67292 c 0,0 0.50271,-3.06917 0.37042,-6.48229 -0.0794,-2.40771 -0.50271,-5.00063 -1.5875,-6.82625 -0.82021,-1.37584 -2.11667,-3.4925 -6.77334,-3.43959 0,0 -3.6777,-0.50271 -8.59895,4.78896 0,0 -7.67292,8.96938 -16.139587,5.87375 0,0 -5.609167,-1.905 -8.598958,-4.89479 0,0 5.238749,9.15458 14.155205,9.31333 2.32834,0.0529 5.74146,0.15875 10.16,-3.4925 2.27542,-1.87854 6.37646,-5.52979 8.44021,-5.84729 0,0 4.49792,-0.66146 2.69875,4.04813 0.0265,-0.0265 -1.905,4.02166 -1.79917,6.95854 z m 12.96459,-0.23813 c 0,0 2.24896,-5.50333 3.06916,-11.56229 0.37042,-2.64583 0.4498,-5.37104 -0.0264,-7.80521 0,0 -0.34396,-1.71979 -1.42875,-3.86291 -0.635,-1.21709 -1.50813,-2.56646 -2.69875,-3.83646 -2.51355,-2.64584 -6.4823,-4.84188 -12.62063,-4.31271 -1.45521,0.13229 -5.23875,-0.29104 -11.82687,6.48229 -2.51355,2.59292 -4.33917,6.69396 -9.445629,7.19667 -2.010833,0.21166 -7.037916,0.37041 -6.799792,-4.78896 0.105834,-2.72521 5.476875,-7.72583 8.493121,-1.45521 0,0 0.82021,-7.32896 -7.037912,-4.92125 0,0 -6.058958,1.82563 -6.0325,9.10167 0,0.66146 0.661458,9.81604 14.737292,8.86354 0,0 3.04271,-0.23813 5.92667,-2.11667 1.98437,-1.29646 4.78895,-3.91583 7.56708,-6.69396 0.26458,-0.26458 8.20208,-7.85812 14.605,0.82021 -0.0265,0.0265 5.13292,6.42938 3.51896,18.89125 z"
       style="stroke-width:0.264583" />
  </g>
</svg>
