<?xml version="1.0" encoding="UTF-8" standalone="no"?>
<!-- Created with Inkscape (http://www.inkscape.org/) -->

<svg
   width="42.459373mm"
   height="40.432003mm"
   viewBox="0 0 42.459374 40.432003"
   version="1.1"
   id="svg42"
   inkscape:version="1.1.2 (b8e25be833, 2022-02-05)"
   sodipodi:docname="heart.svg"
   xmlns:inkscape="http://www.inkscape.org/namespaces/inkscape"
   xmlns:sodipodi="http://sodipodi.sourceforge.net/DTD/sodipodi-0.dtd"
   xmlns="http://www.w3.org/2000/svg"
   xmlns:svg="http://www.w3.org/2000/svg">
  <sodipodi:namedview
     id="namedview44"
     pagecolor="#ffffff"
     bordercolor="#111111"
     borderopacity="1"
     inkscape:pageshadow="0"
     inkscape:pageopacity="0"
     inkscape:pagecheckerboard="1"
     inkscape:document-units="mm"
     showgrid="false"
     fit-margin-top="0"
     fit-margin-left="0"
     fit-margin-right="0"
     fit-margin-bottom="0"
     inkscape:zoom="1.4859428"
     inkscape:cx="27.928397"
     inkscape:cy="97.244661"
     inkscape:window-width="1920"
     inkscape:window-height="1001"
     inkscape:window-x="-9"
     inkscape:window-y="-9"
     inkscape:window-maximized="1"
     inkscape:current-layer="layer1" />
  <defs
     id="defs39" />
  <g
     inkscape:label="Layer 1"
     inkscape:groupmode="layer"
     id="layer1"
     transform="translate(-88.921356,-107.9362)">
    <path
       id="Heart"
       fill="#bd1864 "
       d="m 109.27294,148.28883 c -0.47625,-1.13771 -0.89958,-2.30188 -1.40229,-3.43958 -0.82021,-1.77271 -1.95792,-3.3073 -3.20146,-4.78896 -1.5875,-1.87854 -3.41312,-3.46604 -5.371039,-4.92125 -1.481667,-1.08479 -2.963333,-2.19604 -4.365625,-3.38667 -2.460625,-2.11667 -4.28625,-4.73604 -5.344583,-7.83167 -0.264584,-0.76729 -0.396875,-1.56104 -0.502709,-2.38125 -0.105833,-0.84666 -0.185208,-1.69333 -0.15875,-2.54 0.02646,-1.7727 0.3175,-3.51895 1.084792,-5.15937 0.926042,-1.95792 2.38125,-3.38667 4.233333,-4.41854 1.243542,-0.68792 2.592917,-1.11125 4.021667,-1.29646 0.714375,-0.10583 1.42875,-0.18521 2.143124,-0.18521 2.27542,-0.0265 4.33917,0.66146 6.24417,1.87854 0.9525,0.60854 1.77271,1.37584 2.46062,2.27542 0.0794,0.0794 0.13229,0.21167 0.13229,0.34396 0,11.93271 0,23.89187 0,35.82458 0,0.0265 0,0.0265 0,0.0529 0,0 0.0265,0 0.0265,-0.0265 z m 1.77271,-28.17813 c 0.0529,-0.0529 0.0794,-0.10583 0.13229,-0.15875 1.13771,-1.53458 2.54,-2.7252 4.31271,-3.4925 1.79917,-0.76729 3.59833,-0.87312 5.45042,-0.15875 1.05833,0.42334 1.93146,1.05834 2.46062,2.11667 0.55563,1.11125 0.635,2.27542 0.50271,3.46604 -0.13229,1.56104 -0.71437,2.93688 -1.69333,4.1275 -0.79375,1.00542 -1.69334,1.95792 -2.54,2.93688 -1.24354,1.42875 -2.54,2.8575 -3.73063,4.31271 -1.98437,2.46062 -3.38666,5.21229 -4.1275,8.30791 -0.26458,1.11125 -0.50271,2.24896 -0.60854,3.38667 -0.0529,0.55562 -0.10583,1.11125 -0.13229,1.64042 -0.0265,0.58208 0,1.19062 0,1.7727 0.10583,-0.26458 0.18521,-0.55562 0.26458,-0.8202 0.87313,-2.51355 1.98438,-4.94771 3.54542,-7.1173 1.34937,-1.87854 2.91042,-3.54541 4.84187,-4.81541 0.87313,-0.58209 1.79917,-1.11125 2.69875,-1.69334 1.95792,-1.27 3.73063,-2.69875 5.2123,-4.52437 1.905,-2.35479 3.30729,-4.92125 3.59833,-7.99042 0.13229,-1.24354 0.21167,-2.48708 0.0794,-3.73062 -0.13229,-1.29646 -0.44979,-2.56646 -1.00541,-3.75709 -0.52917,-1.16416 -1.21709,-2.2225 -2.14313,-3.09562 -0.74083,-0.71438 -1.61396,-1.27 -2.56646,-1.71979 -1.27,-0.60854 -2.59291,-0.97896 -3.9952,-1.11125 -0.84667,-0.0794 -1.69334,-0.0794 -2.51355,0.0265 -1.19062,0.13229 -2.32833,0.39687 -3.43958,0.84666 -1.71979,0.71438 -3.175,1.74625 -4.445,3.12209 -0.18521,0.21166 -0.26458,0.42333 -0.26458,0.68791 0,2.38125 0,4.78896 0,7.17021 0,0.0794 0,0.15875 0,0.23813 0.0529,0.0264 0.0794,0.0264 0.10583,0.0264 z"
       style="stroke-width:0.264583" />
  </g>
</svg>
