<?xml version="1.0" encoding="UTF-8" standalone="no"?>
<!-- Created with Inkscape (http://www.inkscape.org/) -->

<svg
   width="44.555836mm"
   height="37.015202mm"
   viewBox="0 0 44.555836 37.015202"
   version="1.1"
   id="svg42"
   inkscape:version="1.1.2 (b8e25be833, 2022-02-05)"
   sodipodi:docname="rage.svg"
   xmlns:inkscape="http://www.inkscape.org/namespaces/inkscape"
   xmlns:sodipodi="http://sodipodi.sourceforge.net/DTD/sodipodi-0.dtd"
   xmlns="http://www.w3.org/2000/svg"
   xmlns:svg="http://www.w3.org/2000/svg">
  <sodipodi:namedview
     id="namedview44"
     pagecolor="#ffffff"
     bordercolor="#111111"
     borderopacity="1"
     inkscape:pageshadow="0"
     inkscape:pageopacity="0"
     inkscape:pagecheckerboard="1"
     inkscape:document-units="mm"
     showgrid="false"
     fit-margin-top="0"
     fit-margin-left="0"
     fit-margin-right="0"
     fit-margin-bottom="0"
     inkscape:zoom="1.4859428"
     inkscape:cx="0.33648672"
     inkscape:cy="81.766272"
     inkscape:window-width="1920"
     inkscape:window-height="1001"
     inkscape:window-x="-9"
     inkscape:window-y="-9"
     inkscape:window-maximized="1"
     inkscape:current-layer="layer1" />
  <defs
     id="defs39" />
  <g
     inkscape:label="Layer 1"
     inkscape:groupmode="layer"
     id="layer1"
     transform="translate(-96.200994,-112.04191)">
    <path
       id="Rage"
       fill="#9c4dad "
       d="m 99.375994,112.04191 2.566456,8.96937 c 0,0 2.91042,-0.10583 5.97959,0.82021 2.83104,0.87312 5.82083,2.59292 6.82625,6.11187 0,0 1.74624,4.65667 -1.905,4.68313 -0.97896,0 -2.59292,-0.82021 -2.59292,-2.09021 0,-0.55562 0.39687,-0.87312 1.11125,-0.92604 0.60854,-0.0265 1.21708,0.39687 2.19604,1.37583 0,0 -0.39687,-2.24896 -2.56646,-2.24896 -0.66146,0 -1.85208,0.18521 -1.85208,1.4023 0,1.08479 0.34396,3.75708 4.07458,3.75708 1.71979,0 3.88938,-0.60854 3.88938,-6.45583 -0.0529,-1.48167 0.13229,-13.38792 -17.727086,-15.39875 z m 35.798126,12.09145 c -1.77271,0 -3.01625,1.00542 -3.01625,1.95792 0,1.37583 1.45521,1.905 1.50812,1.93146 -0.58208,-0.52917 -0.635,-1.40229 -0.635,-1.61396 0,-0.635 0.82021,-1.19062 1.40229,-1.16417 1.19063,0.0529 2.75167,1.21709 2.72521,2.8575 -0.0794,3.09563 -1.13771,5.02709 -2.69875,6.77334 -1.50812,1.66687 -4.47146,2.91041 -6.32354,2.91041 -3.36021,0 -5.60917,-3.59833 -9.68375,-3.62479 0,0 0,0 0,0 -4.07458,0.0265 -6.35,3.62479 -9.68375,3.62479 -1.85208,0 -4.81541,-1.24354 -6.32354,-2.91041 -1.5875,-1.74625 -2.645833,-3.65125 -2.69875,-6.77334 -0.02646,-1.66687 1.53458,-2.83104 2.72521,-2.8575 0.58208,-0.0264 1.40229,0.52917 1.40229,1.16417 0,0.18521 -0.0265,1.08479 -0.635,1.61396 0.0529,-0.0265 1.50813,-0.55563 1.50813,-1.93146 0,-0.9525 -1.27,-1.95792 -3.01625,-1.95792 -2.30188,0 -5.529796,1.69334 -5.529796,7.4348 0,3.22791 2.06375,9.2075 8.995836,11.9327 2.69875,1.05834 5.97958,1.82563 5.87375,5.55625 l 7.40833,-0.0264 v 0 l 7.40833,0.0264 c -0.10583,-3.73062 3.175,-4.47145 5.87375,-5.55625 6.93209,-2.75166 8.99584,-8.70479 8.99584,-11.9327 -0.0529,-5.74146 -3.28084,-7.4348 -5.58271,-7.4348 z m -16.74813,16.9598 c 0,0 0,0 0,0 -0.0794,0 -3.96875,-0.15875 -7.99041,1.5875 0,0 2.64583,-5.23875 7.99041,-5.23875 0,0 0,0 0,0 5.31813,0 7.99042,5.23875 7.99042,5.23875 -4.02167,-1.7198 -7.91104,-1.5875 -7.99042,-1.5875 z m 1.37584,-13.62605 c 0,5.8473 2.16958,6.45584 3.88937,6.45584 3.73063,0 4.07458,-2.64584 4.07458,-3.75709 0,-1.21708 -1.19062,-1.40229 -1.85208,-1.40229 -2.16958,0 -2.56646,2.24896 -2.56646,2.24896 0.9525,-0.97896 1.5875,-1.40229 2.19604,-1.37583 0.74084,0.0265 1.11125,0.37041 1.11125,0.92604 0,1.27 -1.61395,2.09021 -2.59291,2.09021 -3.65125,-0.0265 -1.905,-4.68313 -1.905,-4.68313 1.03187,-3.62479 4.18041,-5.37104 7.09083,-6.19125 2.96333,-0.84666 5.715,-0.74083 5.715,-0.74083 l 2.56646,-8.96938 c -17.91229,1.98438 -17.72708,13.89063 -17.72708,15.39875 z"
       style="stroke-width:0.264583" />
  </g>
</svg>
