<?xml version="1.0" encoding="UTF-8" standalone="no"?>
<!-- Created with Inkscape (http://www.inkscape.org/) -->

<svg
     width="1mm"
     height="1mm"
     viewBox="0 0 1 1"
     version="1.1"
     id="svg45927"
     inkscape:version="1.1.2 (b8e25be833, 2022-02-05)"
     sodipodi:docname="amage.svg"
     xmlns:inkscape="http://www.inkscape.org/namespaces/inkscape"
     xmlns:sodipodi="http://sodipodi.sourceforge.net/DTD/sodipodi-0.dtd"
     xmlns="http://www.w3.org/2000/svg"
     xmlns:svg="http://www.w3.org/2000/svg">
    <sodipodi:namedview
         id="namedview45929"
         pagecolor="#ffffff"
         bordercolor="#111111"
         borderopacity="1"
         inkscape:pageshadow="0"
         inkscape:pageopacity="0"
         inkscape:pagecheckerboard="1"
         inkscape:document-units="mm"
         showgrid="false"
         inkscape:snap-nodes="false"
         inkscape:snap-global="false"
         inkscape:zoom="2.1014404"
         inkscape:cx="103.02457"
         inkscape:cy="143.94888"
         inkscape:window-width="1920"
         inkscape:window-height="1001"
         inkscape:window-x="-9"
         inkscape:window-y="-9"
         inkscape:window-maximized="1"
         inkscape:current-layer="layer1" />
    <defs
         id="defs45924" />
    <g
         inkscape:label="Layer 1"
         inkscape:groupmode="layer"
         id="layer1">
        <path
             id="path6489-7"
             style="fill:#333333;stroke:none;stroke-width:0.00800427;stroke-opacity:1"
             d="m 0.49999951,0.1875 c -0.0703625,-5e-8 -0.13528726,0.0232598 -0.18752067,0.0625026 a 0.06249994,0.06249999 0 0 1 2e-5,0 a 0.06249994,0.06249999 0 0 1 0.0625026,0.0624962 a 0.06249994,0.06249999 0 0 1 -0.0625026,0.0625026 a 0.06249994,0.06249999 0 0 1 -0.0624961,-0.0625026 a 0.06249994,0.06249999 0 0 1 0,-2e-5 c -0.0392429,0.0522336 -0.0625028,0.11715841 -0.0625027,0.18752096 c 3.75e-5,0.0878829 0.0370722,0.1716893 0.10203501,0.23087735 l -0.10203501,0.0816229 h 0.625 l -0.10203501,-0.0816229 c 0.0649628,-0.0591881 0.10200065,-0.14299449 0.10203501,-0.23087735 c -2.3e-7,-0.17258876 -0.13991139,-0.31249997 -0.31250053,-0.31249976 z" />
    </g>
</svg>
