<?xml version="1.0" encoding="UTF-8" standalone="no"?>
<!-- Created with Inkscape (http://www.inkscape.org/) -->

<svg
     width="1mm"
     height="1mm"
     viewBox="0 0 1 1"
     version="1.1"
     id="svg45927"
     inkscape:version="1.1.2 (b8e25be833, 2022-02-05)"
     sodipodi:docname="amaid.svg"
     xmlns:inkscape="http://www.inkscape.org/namespaces/inkscape"
     xmlns:sodipodi="http://sodipodi.sourceforge.net/DTD/sodipodi-0.dtd"
     xmlns="http://www.w3.org/2000/svg"
     xmlns:svg="http://www.w3.org/2000/svg">
    <sodipodi:namedview
         id="namedview45929"
         pagecolor="#ffffff"
         bordercolor="#111111"
         borderopacity="1"
         inkscape:pageshadow="0"
         inkscape:pageopacity="0"
         inkscape:pagecheckerboard="1"
         inkscape:document-units="mm"
         showgrid="false"
         inkscape:snap-nodes="false"
         inkscape:snap-global="false"
         inkscape:zoom="2.1014404"
         inkscape:cx="103.02457"
         inkscape:cy="143.94888"
         inkscape:window-width="1920"
         inkscape:window-height="1001"
         inkscape:window-x="-9"
         inkscape:window-y="-9"
         inkscape:window-maximized="1"
         inkscape:current-layer="layer1" />
    <defs
         id="defs45924" />
    <g
         inkscape:label="Layer 1"
         inkscape:groupmode="layer"
         id="layer1">
        <path
             id="path31194-45"
             style="fill:#808080;stroke-width:0.00094998"
             d="m 0.40625341,0.0625 v 0.09374758 a 0.09375008,0.09374999 0 0 0 2.5e-5,0.002422 c 3.675e-4,0.0145259 0.004043,0.0282258 0.0102965,0.0403852 a 0.31249969,0.31250026 0 0 0 -0.2290749,0.30094438 a 0.31249969,0.31250026 0 0 0 0.31249994,0.31250051 a 0.31249969,0.31250026 0 0 0 0.31250006,-0.31250051 a 0.31249969,0.31250026 0 0 0 -0.22899752,-0.30111238 c 0.006547,-0.0127918 0.0102449,-0.0272828 0.0102449,-0.0426395 v -0.09374758 l -0.0306053,0.02448815 a 0.09375008,0.09374999 0 0 0 -0.0631421,-0.02448815 a 0.09375008,0.09374999 0 0 0 -0.0631421,0.02448815 z" />
    </g>
</svg>
